<?xml version="1.0" standalone="no"?>
<svg
  width="600"
  height="600"
  viewBox="0 0 600 600"
  xmlns="http://www.w3.org/2000/svg"
>
  <g transform="translate(300,300)">
    <path d="M85.8,-102.7C124.9,-89.6,179.9,-83,186.7,-61C193.4,-38.9,151.9,-1.5,132.8,38.8C113.7,79.2,117.1,122.5,98.7,144.2C80.3,165.9,40.2,165.9,-1.4,167.8C-42.9,169.7,-85.8,173.4,-127,159.2C-168.2,144.9,-207.8,112.6,-207.5,76.2C-207.3,39.8,-167.4,-0.8,-144.6,-39.6C-121.8,-78.3,-116.1,-115.2,-94.9,-134.1C-73.7,-153.1,-36.8,-154,-6.8,-144.7C23.3,-135.4,46.6,-115.8,85.8,-102.7Z" fill="#ff9800" />
  </g>
</svg>
  