<?xml version="1.0" standalone="no"?>
<svg
  width="600"
  height="600"
  viewBox="0 0 600 600"
  xmlns="http://www.w3.org/2000/svg"
>
  <g transform="translate(300,300)">
    <path d="M43.4,-44.9C83,-18.5,160.2,-30.2,180.1,-17C200.1,-3.7,162.8,34.4,131.7,64.5C100.6,94.7,75.6,116.9,40.1,144.9C4.6,172.9,-41.5,206.7,-87.2,205.1C-132.8,203.4,-178.1,166.2,-196.4,120.3C-214.6,74.4,-205.8,19.8,-190.9,-28.3C-176.1,-76.5,-155.2,-118.3,-122.4,-145.9C-89.6,-173.4,-44.8,-186.7,-21.4,-161.2C1.9,-135.6,3.9,-71.3,43.4,-44.9Z" fill="#ff9800" />
  </g>
</svg>
  