<?xml version="1.0" standalone="no"?>
<svg
  width="600"
  height="600"
  viewBox="0 0 600 600"
  xmlns="http://www.w3.org/2000/svg"
>
  <g transform="translate(300,300)">
    <path d="M97,-94.6C135.8,-83.1,184.1,-62,190.3,-32.7C196.5,-3.3,160.6,34.3,138.6,87.1C116.5,139.8,108.4,207.6,74.6,231.3C40.8,255,-18.6,234.6,-58.4,202.1C-98.2,169.5,-118.4,124.7,-133.1,84.2C-147.9,43.6,-157.1,7.1,-144.9,-19.1C-132.6,-45.4,-98.8,-61.4,-71,-74.8C-43.3,-88.2,-21.6,-99.1,3.7,-103.6C29.1,-108.1,58.3,-106.1,97,-94.6Z" fill="#ff9800" />
  </g>
</svg>
  