<?xml version="1.0" standalone="no"?>
<svg
  width="600"
  height="600"
  viewBox="0 0 600 600"
  xmlns="http://www.w3.org/2000/svg"
>
  <g transform="translate(300,300)">
    <path d="M140.5,-162.1C185,-130.1,225.9,-88.6,217.9,-50.7C210,-12.9,153,21.3,112.5,40C72,58.6,47.8,61.7,17.5,91.6C-12.8,121.5,-49.1,178.2,-75.3,180.3C-101.5,182.3,-117.4,129.6,-134.3,85C-151.3,40.3,-169.2,3.7,-176.6,-44.5C-184.1,-92.7,-181.1,-152.5,-149.9,-186.8C-118.7,-221.1,-59.4,-230.1,-5.7,-223.3C48,-216.5,96,-194.1,140.5,-162.1Z" fill="#ff9800" />
  </g>
</svg>
  