<?xml version="1.0" standalone="no"?>
<svg
  width="600"
  height="600"
  viewBox="0 0 600 600"
  xmlns="http://www.w3.org/2000/svg"
>
  <g transform="translate(300,300)">
    <path d="M42.1,-79.8C55.9,-38.6,69.3,-26.6,81,-7.3C92.7,11.9,102.6,38.5,96.7,62.5C90.8,86.6,69,108.1,41.6,121.1C14.1,134.1,-18.9,138.4,-54.8,133C-90.7,127.6,-129.3,112.3,-163.3,80.9C-197.4,49.6,-226.7,2.2,-223.3,-43.3C-220,-88.8,-183.9,-132.5,-141.2,-168.7C-98.6,-204.8,-49.3,-233.4,-17.6,-212.5C14.1,-191.5,28.3,-121,42.1,-79.8Z" fill="#ff9800" />
  </g>
</svg>
  