<?xml version="1.0" standalone="no"?>
<svg
  width="600"
  height="600"
  viewBox="0 0 600 600"
  xmlns="http://www.w3.org/2000/svg"
>
  <g transform="translate(300,300)">
    <path d="M70.5,-84C106.7,-86.4,162.1,-92.8,193.1,-73.8C224.1,-54.8,230.8,-10.3,225.5,33C220.1,76.3,202.6,118.3,173.3,147.5C143.9,176.7,102.7,192.9,65.3,188.3C28,183.6,-5.4,158,-51.6,154.2C-97.7,150.5,-156.6,168.6,-183.9,151.4C-211.2,134.1,-207.1,81.7,-214.1,31C-221.1,-19.7,-239.3,-68.7,-228.1,-108.7C-216.9,-148.8,-176.3,-180,-133.4,-174.5C-90.5,-169.1,-45.2,-127.1,-14.1,-105.2C17.1,-83.3,34.2,-81.6,70.5,-84Z" fill="#ff9800" />
  </g>
</svg>
  