<?xml version="1.0" standalone="no"?>
<svg
  width="600"
  height="600"
  viewBox="0 0 600 600"
  xmlns="http://www.w3.org/2000/svg"
>
  <g transform="translate(300,300)">
    <path d="M53.9,-55.1C82.3,-65.7,126.2,-71.7,127.9,-60.6C129.6,-49.5,89,-21.2,95.4,21.8C101.9,64.9,155.2,122.8,158.7,161C162.2,199.2,115.7,217.6,70.5,223.1C25.3,228.7,-18.8,221.3,-60.3,208C-101.8,194.6,-140.9,175.2,-160.9,144C-181,112.7,-182,69.5,-196.6,23.2C-211.2,-23.2,-239.3,-72.6,-224.3,-101.1C-209.3,-129.7,-151.1,-137.2,-106.6,-119.2C-62,-101.1,-31,-57.6,-9.1,-43.4C12.8,-29.2,25.6,-44.5,53.9,-55.1Z" fill="#ff9800" />
  </g>
</svg>
  