<?xml version="1.0" standalone="no"?>
<svg
  width="600"
  height="600"
  viewBox="0 0 600 600"
  xmlns="http://www.w3.org/2000/svg"
>
  <g transform="translate(300,300)">
    <path d="M77.7,-102.8C107.2,-85.5,142,-71.5,164.2,-43.8C186.4,-16.1,195.9,25.3,192.5,70.8C189.1,116.2,172.7,165.7,138.5,163.9C104.2,162.1,52.1,109.1,0.5,108.4C-51.1,107.7,-102.3,159.4,-129.1,158.8C-155.9,158.2,-158.3,105.2,-173.5,56.8C-188.6,8.3,-216.5,-35.5,-214.1,-77.8C-211.7,-120.1,-179,-160.8,-138.3,-174.4C-97.6,-188,-48.8,-174.5,-12.3,-157.5C24.1,-140.5,48.2,-120,77.7,-102.8Z" fill="#ff9800" />
  </g>
</svg>
  