<?xml version="1.0" standalone="no"?>
<svg
  width="600"
  height="600"
  viewBox="0 0 600 600"
  xmlns="http://www.w3.org/2000/svg"
>
  <g transform="translate(300,300)">
    <path d="M108.3,-172.8C132.2,-153.1,138,-109.4,155.2,-71.1C172.4,-32.8,201,0.1,191.2,23.3C181.3,46.5,133,59.9,103,82.5C73,105.2,61.3,137,38.9,152.9C16.5,168.9,-16.5,168.9,-49.7,162.3C-82.9,155.8,-116.3,142.7,-140,119.2C-163.8,95.6,-177.9,61.6,-191.6,22.4C-205.3,-16.9,-218.6,-61.4,-195.2,-79.3C-171.8,-97.3,-111.6,-88.6,-72.9,-101.6C-34.2,-114.6,-17.1,-149.3,12.5,-168.8C42.2,-188.3,84.3,-192.6,108.3,-172.8Z" fill="#ff9800" />
  </g>
</svg>
  